<?xml version="1.0" encoding="utf-8"?>
<!-- Generator: Adobe Illustrator 26.0.1, SVG Export Plug-In . SVG Version: 6.00 Build 0)  -->
<svg version="1.1" id="Layer_1" xmlns="http://www.w3.org/2000/svg" xmlns:xlink="http://www.w3.org/1999/xlink" x="0px" y="0px"
	 viewBox="0 0 30 30" style="enable-background:new 0 0 30 30;" xml:space="preserve">
<g>
	<path d="M26.13,30.12h-0.07c-0.87,0-1.66-0.54-1.98-1.35l-1.98-4.98c-0.32-0.82-1.11-1.35-1.98-1.35H9.98
		c-0.87,0-1.66,0.54-1.98,1.34l-2.01,5c-0.32,0.8-1.11,1.34-1.98,1.34l0,0c-1.51,0-2.56-1.54-1.98-2.95L12.5,1.45
		c0.32-0.8,1.11-1.33,1.98-1.33h1.49c0.87,0,1.66,0.54,1.98,1.35l10.17,25.71C28.67,28.6,27.63,30.12,26.13,30.12z M18.8,15.39
		l-1.73-4.42c-0.71-1.81-3.27-1.81-3.98,0l-1.76,4.42c-0.55,1.41,0.48,2.92,1.98,2.92h3.48C18.31,18.31,19.35,16.78,18.8,15.39z"/>
</g>
</svg>
