<?xml version="1.0" encoding="utf-8"?>
<!-- Generator: Adobe Illustrator 26.0.1, SVG Export Plug-In . SVG Version: 6.00 Build 0)  -->
<svg version="1.1" id="Layer_1" xmlns="http://www.w3.org/2000/svg" xmlns:xlink="http://www.w3.org/1999/xlink" x="0px" y="0px"
	 viewBox="0 0 30 30" style="enable-background:new 0 0 30 30;" xml:space="preserve">
<g>
	<path d="M0.89,21.28c-0.65-0.79-0.39-1.97,0.53-2.41c2.7-1.31,4.97-2.99,6.79-5.02c1.74-1.92,2.95-4.03,3.63-6.33
		c0.3-0.99-0.49-2-1.53-2H3.14c-0.87,0-1.58-0.71-1.58-1.58v-0.1c0-0.87,0.71-1.58,1.58-1.58h11.57c0.91,0,1.65,0.79,1.58,1.7
		c-0.31,4.46-1.81,8.09-4.13,11.05c-2.25,2.9-5.33,5.21-9.06,7.05c-0.65,0.32-1.44,0.14-1.9-0.42L0.89,21.28z M24.4,1.58v6.55
		c0,0.87,0.71,1.58,1.58,1.58h1.92c0.87,0,1.58,0.71,1.58,1.58l0,0c0,0.87-0.71,1.58-1.58,1.58h-1.92c-0.87,0-1.58,0.71-1.58,1.58
		v13.99c0,0.87-0.71,1.58-1.58,1.58h-0.55c-0.87,0-1.58-0.71-1.58-1.58V1.58C20.69,0.71,21.4,0,22.27,0h0.55
		C23.69,0,24.4,0.71,24.4,1.58z"/>
</g>
</svg>
