<?xml version="1.0" encoding="utf-8"?>
<!-- Generator: Adobe Illustrator 26.0.1, SVG Export Plug-In . SVG Version: 6.00 Build 0)  -->
<svg version="1.1" id="Layer_1" xmlns="http://www.w3.org/2000/svg" xmlns:xlink="http://www.w3.org/1999/xlink" x="0px" y="0px"
	 viewBox="0 0 30 30" style="enable-background:new 0 0 30 30;" xml:space="preserve">
<g>
	<path d="M0.33,7.44L0.33,7.44c0-0.86,0.69-1.54,1.54-1.54h14.74c0.86,0,1.54,0.69,1.54,1.54l0,0c0,0.86-0.69,1.54-1.54,1.54H1.87
		C1.02,8.98,0.33,8.3,0.33,7.44z M9.27,23.21c-3.74,0-7.1-2.57-7.1-6.51c0-3.91,3.43-6.41,7.1-6.41c3.63,0,7.03,2.57,7.03,6.41
		C16.3,20.61,12.98,23.21,9.27,23.21z M4.03,2.19V2.13c0-0.86,0.69-1.54,1.54-1.54h7.44c0.86,0,1.54,0.69,1.54,1.54v0.07
		c0,0.86-0.69,1.54-1.54,1.54H5.57C4.73,3.74,4.03,3.05,4.03,2.19z M9.27,13.27c-1.95,0-3.63,1.41-3.63,3.43
		c0,2.06,1.68,3.53,3.63,3.53s3.57-1.47,3.57-3.53C12.84,14.67,11.23,13.27,9.27,13.27z M24.6,1.54v8.67c0,0.86,0.69,1.54,1.54,1.54
		h1.99c0.86,0,1.54,0.69,1.54,1.54v0.07c0,0.86-0.69,1.54-1.54,1.54h-1.99c-0.86,0-1.54,0.69-1.54,1.54v12
		c0,0.86-0.69,1.54-1.54,1.54h-0.62c-0.86,0-1.54-0.69-1.54-1.54V1.54C20.9,0.69,21.58,0,22.44,0h0.62C23.91,0,24.6,0.69,24.6,1.54z
		"/>
</g>
</svg>
