<?xml version="1.0" encoding="utf-8"?>
<!-- Generator: Adobe Illustrator 26.0.1, SVG Export Plug-In . SVG Version: 6.00 Build 0)  -->
<svg version="1.1" id="Layer_1" xmlns="http://www.w3.org/2000/svg" xmlns:xlink="http://www.w3.org/1999/xlink" x="0px" y="0px"
	 viewBox="0 0 30 30" style="enable-background:new 0 0 30 30;" xml:space="preserve">
<g>
	<path d="M22.67,30H7.32c-1.15,0-2.07-0.93-2.07-2.07v-0.86c0-0.39,0.11-0.77,0.31-1.09L17.19,7.3c0.85-1.38-0.14-3.16-1.76-3.16
		H7.65c-1.15,0-2.07-0.93-2.07-2.07l0,0C5.58,0.92,6.51,0,7.65,0h14.51c1.15,0,2.07,0.93,2.07,2.07v0.88c0,0.38-0.11,0.76-0.31,1.08
		L12.39,22.68c-0.85,1.38,0.14,3.15,1.76,3.15h8.54c1.15,0,2.07,0.93,2.07,2.07v0.04C24.74,29.08,23.82,30,22.67,30z"/>
</g>
</svg>
